<svg width="100%" height="100%" xmlns="http://www.w3.org/2000/svg">
  <defs>
    <!-- Originalvågväg som ska följas av alla linjer -->
    <path id="wave" d="M 0 385.729 C 135 385.729 269 480.271 404 480.271 C 539 480.271 673 385.729 808 385.729 C 943 385.729 1077 480.271 1212 480.271 C 1347 480.271 1481 385.729 1616 385.729" />
  </defs>

  <g stroke-width="2" fill="none">
    <!-- Första linjen med oregelbunden vertikal rörelse -->
    <path stroke="rgb(104, 114, 176)" stroke-opacity="1" d="M 0 385.729 C 135 385.729 269 480.271 404 480.271 C 539 480.271 673 385.729 808 385.729 C 943 385.729 1077 480.271 1212 480.271 C 1347 480.271 1481 385.729 1616 385.729">
      <animateTransform attributeName="transform" type="translate" values="0,0;0,20;0,0;0,-20;0,0" dur="4s" repeatCount="indefinite" />
    </path>

    <!-- Andra linjen med oregelbunden vertikal rörelse -->
    <path stroke="rgb(140, 144, 220)" stroke-opacity="1" d="M 0 385.729 C 135 385.729 269 480.271 404 480.271 C 539 480.271 673 385.729 808 385.729 C 943 385.729 1077 480.271 1212 480.271 C 1347 480.271 1481 385.729 1616 385.729" transform="translate(0,-10)">
      <animateTransform attributeName="transform" type="translate" values="0,0;0,15;0,0;0,-15;0,0" dur="5s" repeatCount="indefinite" />
    </path>

    <!-- Tredje linjen med oregelbunden vertikal rörelse -->
    <path stroke="rgb(176, 184, 255)" stroke-opacity="1" d="M 0 385.729 C 135 385.729 269 480.271 404 480.271 C 539 480.271 673 385.729 808 385.729 C 943 385.729 1077 480.271 1212 480.271 C 1347 480.271 1481 385.729 1616 385.729" transform="translate(0,-20)">
      <animateTransform attributeName="transform" type="translate" values="0,0;0,10;0,0;0,-10;0,0" dur="6s" repeatCount="indefinite" />
    </path>

    <!-- Fjärde linjen med oregelbunden vertikal rörelse -->
    <path stroke="rgb(104, 200, 176)" stroke-opacity="1" d="M 0 385.729 C 135 385.729 269 480.271 404 480.271 C 539 480.271 673 385.729 808 385.729 C 943 385.729 1077 480.271 1212 480.271 C 1347 480.271 1481 385.729 1616 385.729" transform="translate(0,-30)">
      <animateTransform attributeName="transform" type="translate" values="0,0;0,25;0,0;0,-25;0,0" dur="3.5s" repeatCount="indefinite" />
    </path>

    <!-- Femte linjen med oregelbunden vertikal rörelse -->
    <path stroke="rgb(150, 220, 255)" stroke-opacity="1" d="M 0 385.729 C 135 385.729 269 480.271 404 480.271 C 539 480.271 673 385.729 808 385.729 C 943 385.729 1077 480.271 1212 480.271 C 1347 480.271 1481 385.729 1616 385.729" transform="translate(0,-40)">
      <animateTransform attributeName="transform" type="translate" values="0,0;0,20;0,0;0,-20;0,0" dur="4.2s" repeatCount="indefinite" />
    </path>

    <!-- Sjätte linjen med oregelbunden vertikal rörelse -->
    <path stroke="rgb(104, 150, 255)" stroke-opacity="1" d="M 0 385.729 C 135 385.729 269 480.271 404 480.271 C 539 480.271 673 385.729 808 385.729 C 943 385.729 1077 480.271 1212 480.271 C 1347 480.271 1481 385.729 1616 385.729" transform="translate(0,-50)">
      <animateTransform attributeName="transform" type="translate" values="0,0;0,30;0,0;0,-30;0,0" dur="3.8s" repeatCount="indefinite" />
    </path>
  </g>
</svg>
